<svg width="24" height="24" viewBox="0 0 24 24" fill="none" xmlns="http://www.w3.org/2000/svg">
<path fill-rule="evenodd" clip-rule="evenodd" d="M7.37733 19.5288C7.01365 19.1132 7.05576 18.4814 7.4714 18.1178L14.6113 11.8703L7.4714 5.62292C7.05576 5.25924 7.01365 4.62748 7.37733 4.21184C7.74101 3.7962 8.37277 3.75409 8.78841 4.11777L16.3584 10.7415C17.0414 11.3391 17.0414 12.4016 16.3584 12.9992L8.78841 19.6229C8.37277 19.9866 7.74101 19.9445 7.37733 19.5288Z" fill="black"/>
<path fill-rule="evenodd" clip-rule="evenodd" d="M7.37733 19.5288C7.01365 19.1132 7.05576 18.4814 7.4714 18.1178L14.6113 11.8703L7.4714 5.62292C7.05576 5.25924 7.01365 4.62748 7.37733 4.21184C7.74101 3.7962 8.37277 3.75409 8.78841 4.11777L16.3584 10.7415C17.0414 11.3391 17.0414 12.4016 16.3584 12.9992L8.78841 19.6229C8.37277 19.9866 7.74101 19.9445 7.37733 19.5288Z" fill="black"/>
<path fill-rule="evenodd" clip-rule="evenodd" d="M7.37733 19.5288C7.01365 19.1132 7.05576 18.4814 7.4714 18.1178L14.6113 11.8703L7.4714 5.62292C7.05576 5.25924 7.01365 4.62748 7.37733 4.21184C7.74101 3.7962 8.37277 3.75409 8.78841 4.11777L16.3584 10.7415C17.0414 11.3391 17.0414 12.4016 16.3584 12.9992L8.78841 19.6229C8.37277 19.9866 7.74101 19.9445 7.37733 19.5288Z" fill="black"/>
</svg>
