<svg width="24" height="24" viewBox="0 0 24 24" fill="none" xmlns="http://www.w3.org/2000/svg">
<path fill-rule="evenodd" clip-rule="evenodd" d="M16.6232 4.21184C16.9869 4.62748 16.9447 5.25924 16.5291 5.62293L9.38918 11.8703L16.5291 18.1178C16.9447 18.4815 16.9869 19.1132 16.6232 19.5289C16.2595 19.9445 15.6277 19.9866 15.2121 19.6229L7.64213 12.9992C6.95914 12.4016 6.95914 11.3391 7.64213 10.7415L15.2121 4.11777C15.6277 3.75409 16.2595 3.79621 16.6232 4.21184Z" fill="black"/>
<path fill-rule="evenodd" clip-rule="evenodd" d="M16.6232 4.21184C16.9869 4.62748 16.9447 5.25924 16.5291 5.62293L9.38918 11.8703L16.5291 18.1178C16.9447 18.4815 16.9869 19.1132 16.6232 19.5289C16.2595 19.9445 15.6277 19.9866 15.2121 19.6229L7.64213 12.9992C6.95914 12.4016 6.95914 11.3391 7.64213 10.7415L15.2121 4.11777C15.6277 3.75409 16.2595 3.79621 16.6232 4.21184Z" fill="black"/>
<path fill-rule="evenodd" clip-rule="evenodd" d="M16.6232 4.21184C16.9869 4.62748 16.9447 5.25924 16.5291 5.62293L9.38918 11.8703L16.5291 18.1178C16.9447 18.4815 16.9869 19.1132 16.6232 19.5289C16.2595 19.9445 15.6277 19.9866 15.2121 19.6229L7.64213 12.9992C6.95914 12.4016 6.95914 11.3391 7.64213 10.7415L15.2121 4.11777C15.6277 3.75409 16.2595 3.79621 16.6232 4.21184Z" fill="black" fill-opacity="0.5"/>
</svg>
